<?plantuml 1.2026.2?><svg xmlns="http://www.w3.org/2000/svg" xmlns:xlink="http://www.w3.org/1999/xlink" contentStyleType="text/css" data-diagram-type="DESCRIPTION" height="477px" preserveAspectRatio="none" style="width:850px;height:477px;background:#FFFFFF;" version="1.1" viewBox="0 0 850 477" width="850px" zoomAndPan="magnify"><title>my-consent Repository Architecture Starter</title><defs/><g><g class="title" data-source-line="2"><text fill="#000000" font-family="Monospace" font-size="14" font-weight="bold" lengthAdjust="spacing" textLength="301.1914" x="271.1543" y="24.9659">my-consent&#160;Repository&#160;Architecture&#160;Starter</text></g><!--cluster Implementation / Content Roots--><g class="cluster" data-qualified-name="Implementation . Content Roots" data-source-line="13" id="ent0008"><rect fill="#F8FAFC" height="77" rx="2.5" ry="2.5" style="stroke:#181818;stroke-width:1;" width="240" x="324" y="394.0679"/><text fill="#000000" font-family="Monospace" font-size="14" font-weight="bold" lengthAdjust="spacing" textLength="224.2617" x="331.8692" y="411.0339">Implementation&#160;/&#160;Content&#160;Roots</text></g><!--entity contributor--><g class="entity" data-qualified-name="contributor" data-source-line="7" id="ent0002"><ellipse cx="293.9929" cy="52.5679" fill="#F1F1F1" rx="8" ry="8" style="stroke:#181818;stroke-width:0.5;"/><path d="M293.9929,60.5679 L293.9929,87.5679 M280.9929,68.5679 L306.9929,68.5679 M293.9929,87.5679 L280.9929,102.5679 M293.9929,87.5679 L306.9929,102.5679" fill="none" style="stroke:#181818;stroke-width:0.5;"/><text fill="#000000" font-family="Monospace" font-size="14" lengthAdjust="spacing" textLength="76.9857" x="255.5" y="119.0339">Contributor</text></g><!--entity governance--><g class="entity" data-qualified-name="governance" data-source-line="8" id="ent0003"><rect fill="#E2E8F0" height="77.2038" rx="2.5" ry="2.5" style="stroke:#181818;stroke-width:0.5;" width="166.6214" x="210.5" y="159.0679"/><text fill="#000000" font-family="Monospace" font-size="14" lengthAdjust="spacing" textLength="81.5917" x="220.5" y="184.0339">README.md</text><text fill="#000000" font-family="Monospace" font-size="14" lengthAdjust="spacing" textLength="78.4837" x="220.5" y="203.1018">AGENTS.md</text><text fill="#000000" font-family="Monospace" font-size="14" lengthAdjust="spacing" textLength="146.6214" x="220.5" y="222.1697">LESSONSLEARNED.md</text></g><!--entity blueprint--><g class="entity" data-qualified-name="blueprint" data-source-line="9" id="ent0004"><rect fill="#DBEAFE" height="39.0679" rx="2.5" ry="2.5" style="stroke:#181818;stroke-width:0.5;" width="305.1929" x="141.5" y="272.0679"/><text fill="#000000" font-family="Monospace" font-size="14" lengthAdjust="spacing" textLength="285.1929" x="151.5" y="297.0339">docs/contributor-architecture-blueprint.md</text></g><!--entity plantuml_source--><g class="entity" data-qualified-name="plantuml_source" data-source-line="10" id="ent0005"><rect fill="#FCE7F3" height="39.0679" rx="2.5" ry="2.5" style="stroke:#181818;stroke-width:0.5;" width="275.695" x="6" y="347.0679"/><text fill="#000000" font-family="Monospace" font-size="14" lengthAdjust="spacing" textLength="255.695" x="16" y="372.0339">docs/diagrams/repo-architecture.puml</text></g><!--entity drawio_source--><g class="entity" data-qualified-name="drawio_source" data-source-line="11" id="ent0006"><rect fill="#FCE7F3" height="39.0679" rx="2.5" ry="2.5" style="stroke:#181818;stroke-width:0.5;" width="287.063" x="300.5" y="347.0679"/><text fill="#000000" font-family="Monospace" font-size="14" lengthAdjust="spacing" textLength="267.063" x="310.5" y="372.0339">docs/diagrams/repo-architecture.drawio</text></g><!--entity workflows--><g class="entity" data-qualified-name="workflows" data-source-line="12" id="ent0007"><rect fill="#DCFCE7" height="39.0679" rx="2.5" ry="2.5" style="stroke:#181818;stroke-width:0.5;" width="239.3792" x="605.5" y="347.0679"/><text fill="#000000" font-family="Monospace" font-size="14" lengthAdjust="spacing" textLength="219.3792" x="615.5" y="372.0339">workflow&#160;coverage&#160;not&#160;added&#160;yet</text></g><!--entity root_1--><g class="entity" data-qualified-name="Implementation . Content Roots.root_1" data-source-line="14" id="ent0009"><rect fill="#E0F2FE" height="39.0679" rx="2.5" ry="2.5" style="stroke:#181818;stroke-width:0.5;" width="124.1456" x="382" y="424.0679"/><text fill="#000000" font-family="Monospace" font-size="14" lengthAdjust="spacing" textLength="104.1456" x="392" y="449.0339">repository&#160;root/</text></g><g class="link" data-entity-1="ent0002" data-entity-2="ent0003" data-link-type="dependency" id="lnk10"><polygon fill="#181818" points="294,158.7108,298,149.7108,294,153.7108,290,149.7108,294,158.7108" style="stroke:#181818;stroke-width:1;"/><path d="M294,123.112 C294,134.6283 294,141.239 294,152.7108" fill="none" style="stroke:#181818;stroke-width:1;"/></g><g class="link" data-entity-1="ent0003" data-entity-2="ent0004" data-link-type="dependency" id="lnk11"><polygon fill="#181818" points="294,271.9538,298,262.9538,294,266.9538,290,262.9538,294,271.9538" style="stroke:#181818;stroke-width:1;"/><path d="M294,236.2533 C294,248.5598 294,255.6877 294,265.9538" fill="none" style="stroke:#181818;stroke-width:1;"/></g><g class="link" data-entity-1="ent0004" data-entity-2="ent0005" data-link-type="dependency" id="lnk12"><polygon fill="#181818" points="182.1696,346.992,192.0126,346.6503,186.6655,344.8041,188.5118,339.457,182.1696,346.992" style="stroke:#181818;stroke-width:1;"/><path d="M255.7606,311.1778 C233.1927,322.1608 210.1203,333.3894 187.5646,344.3665" fill="none" style="stroke:#181818;stroke-width:1;"/></g><g class="link" data-entity-1="ent0004" data-entity-2="ent0006" data-link-type="dependency" id="lnk13"><polygon fill="#181818" points="405.8304,346.992,399.4882,339.457,401.3345,344.8041,395.9874,346.6503,405.8304,346.992" style="stroke:#181818;stroke-width:1;"/><path d="M332.2394,311.1778 C354.8073,322.1608 377.8797,333.3894 400.4354,344.3665" fill="none" style="stroke:#181818;stroke-width:1;"/></g><g class="link" data-entity-1="ent0005" data-entity-2="ent0009" data-link-type="dependency" id="lnk14"><polygon fill="#181818" points="381.8227,427.0236,374.0616,420.9602,376.972,425.8109,372.1213,428.7214,381.8227,427.0236" style="stroke:#181818;stroke-width:1;"/><path d="M218.1573,386.1072 C268.4761,398.6869 328.4262,413.6745 376.0019,425.5684" fill="none" style="stroke:#181818;stroke-width:1;"/></g><g class="link" data-entity-1="ent0006" data-entity-2="ent0009" data-link-type="dependency" id="lnk15"><polygon fill="#181818" points="444,423.9819,448,414.9819,444,418.9819,440,414.9819,444,423.9819" style="stroke:#181818;stroke-width:1;"/><path d="M444,386.1072 C444,397.6459 444,406.4346 444,417.9819" fill="none" style="stroke:#181818;stroke-width:1;"/></g><g class="link" data-entity-1="ent0007" data-entity-2="ent0009" data-link-type="dependency" id="lnk16"><polygon fill="#181818" points="506.4366,425.9033,516.1637,427.4472,511.2675,424.614,514.1007,419.7177,506.4366,425.9033" style="stroke:#181818;stroke-width:1;"/><path d="M655.5393,386.1072 C609.8701,398.2965 556.4088,412.5656 512.2337,424.3561" fill="none" style="stroke:#181818;stroke-width:1;"/></g><?plantuml-src bLBBRjim4BppApREMN6Q7ffJ0DMcYWA92rWz5Z0subeXp8T0hce8HV-zbD9Oj0CKw6rVdE7Ex5KNiBK81WVVCqHBZ0u5QpO4TYWQxo8vXYrrFchsOO0oD2-QgU4-4DICWIc8UD2kmu0MuWigVzIkXJsQI5b7qHvxmvLtl45ByEITZnqs-KnA3zXIpKFY3ua4NMj826mIDwpIqw2V-p762CsSYjCiBBQoN3_96wj-kFABt7olf_1HrlMtJVqeo-r6hbDfCKAq_YS5XwuXk9PtyhwwpP6KR-8oOoamsxruDZrrGJj-0piLu7hzMPQLV8UbDBPfpRWCISypj9kkjsP2wGmwJiak-ZwC_wfMybFryN-mLC2ZzXFQQ_WFhACFXxtnnwHcaY9f3yupe5AaO22UGDvcObfiDKA8lpx1uglj3Dbq8iZQErXE7aqNupt7HMAyhyfg1Ry4GCOQvdiAQN0vqOpHxaCouhQwI-Bz5YBJ7ehY8RDBPCwDdPFsOdPXh5-eUT4zKqTSAZzElFv9dCkODMPfvk8V?></g></svg>
