<?plantuml 1.2026.2?><svg xmlns="http://www.w3.org/2000/svg" xmlns:xlink="http://www.w3.org/1999/xlink" contentStyleType="text/css" data-diagram-type="DESCRIPTION" height="271px" preserveAspectRatio="none" style="width:428px;height:271px;background:#FFFFFF;" version="1.1" viewBox="0 0 428 271" width="428px" zoomAndPan="magnify"><title>my-consent Tooling Integrations</title><defs/><g><g class="title" data-source-line="1"><text fill="#000000" font-family="Monospace" font-size="14" font-weight="bold" lengthAdjust="spacing" textLength="227.1527" x="93.6406" y="24.9659">my-consent&#160;Tooling&#160;Integrations</text></g><!--entity source_scripts_run_tachometer_profile_sh--><g class="entity" data-qualified-name="source_scripts_run_tachometer_profile_sh" data-source-line="7" id="ent0002"><rect fill="#E0F2FE" height="58.1358" rx="2.5" ry="2.5" style="stroke:#181818;stroke-width:0.5;" width="242.2912" x="7" y="126.7079"/><text fill="#000000" font-family="Monospace" font-size="14" lengthAdjust="spacing" textLength="222.2912" x="17" y="151.6739">scripts/run_tachometer_profile.sh</text><text fill="#000000" font-family="Monospace" font-size="14" lengthAdjust="spacing" textLength="105.3356" x="17" y="170.7418">3&#160;detected&#160;tools</text></g><!--entity tool_run--><g class="entity" data-qualified-name="tool_run" data-source-line="8" id="ent0003"><path d="M344.1902,56.8706 C349.0618,47.7293 357.3648,46.1296 364.4251,54.3143 C370.2887,46.5504 378.6135,48.2883 382.0127,56.9525 C391.6023,57.6613 397.2916,62.4144 391.8044,72.5737 C397.0385,82.0202 393.5365,87.44 383.163,88.3228 C382.9246,101.0475 376.5931,106.0421 364.5997,99.8709 C353.693,104.9036 346.5306,103.4176 345.8302,89.6703 C336.1693,88.8356 332.3811,80.744 337.7339,72.7327 C332.6785,64.6057 335.0947,59.2377 344.1902,56.8706" fill="#FEF3C7" style="stroke:#181818;stroke-width:0.5;"/><text fill="#000000" font-family="Monospace" font-size="14" lengthAdjust="spacing" textLength="23.0859" x="350.98" y="77.2039">run</text></g><!--entity tool_summarize--><g class="entity" data-qualified-name="tool_summarize" data-source-line="9" id="ent0004"><path d="M320.0562,139.7082 C325.2505,132.088 330.4879,133.6617 334.9154,140.4963 C338.5319,133.3452 344.2394,133.5795 348.3202,140.0389 C353.1542,132.5754 357.9209,131.3054 364.1259,138.5673 C368.1867,131.1997 375.2865,131.4657 378.9106,139.0007 C383.4951,132.1413 390.3865,132.4184 393.6024,140.3593 C397.2389,134.5447 403.939,133.9823 407.1017,140.8631 C416.4694,140.9338 420.5794,148.7506 415.4893,156.5512 C421.4339,165.1643 417.7613,171.1668 408.1664,172.7589 C404.3844,180.6105 396.7945,180.5184 391.8762,174.0518 C388.5699,182.1689 383.2883,181.6599 378.0295,176.0165 C375.2374,183.3974 368.3539,182.8845 364.2946,177.3659 C359.4656,182.9427 354.4955,183.9218 350.1581,176.8179 C344.6002,182.4858 338.2788,181.7947 335.1819,174.0665 C330.992,181.7863 324.5019,181.8264 320.6276,173.7753 C310.0676,172.9199 308.1351,163.6176 313.5771,156.3045 C308.2633,149.1206 309.3292,140.6298 320.0562,139.7082" fill="#FEF3C7" style="stroke:#181818;stroke-width:0.5;"/><text fill="#000000" font-family="Monospace" font-size="14" lengthAdjust="spacing" textLength="73.2617" x="325.89" y="161.2039">summarize</text></g><!--entity tool_tachometer--><g class="entity" data-qualified-name="tool_tachometer" data-source-line="10" id="ent0005"><path d="M318.8672,223.6907 C321.6407,218.6174 326.196,218.9775 328.9274,223.7338 C333.0084,217.5092 338.3557,218.9347 341.8126,224.4206 C345.1305,218.9344 348.3863,218.5078 352.1278,224.0235 C355.0186,217.1195 359.5721,217.0811 364.3058,222.1488 C368.1208,216.9114 372.5124,219.0105 374.7933,223.7599 C377.9261,218.6305 381.9549,218.416 385.476,223.3474 C389.3174,217.506 394.2207,218.6284 397.2876,224.1523 C400.356,218.4488 404.9969,219.7477 407.9723,224.2497 C416.2008,228.061 416.8821,235.0747 409.7196,240.5371 C417.74,245.5006 417.221,251.1823 409.8884,256.3101 C406.7061,261.712 402.4187,262.4527 398.4912,257.0998 C395.8329,263.7654 390.7721,264.0238 386.258,259.0502 C382.2925,264.4338 378.9746,263.6977 375.2571,258.7852 C372.8491,264.4725 367.5853,264.6148 364.5816,259.3666 C361.1725,264.1032 356.075,264.5201 352.9593,259.0332 C348.9347,262.8121 344.2251,263.0921 342.0926,256.959 C339.093,263.9778 332.9563,263.2166 328.9172,258.0863 C325.3731,262.5639 319.747,262.1996 317.3947,256.7087 C308.5879,255.5597 305.6325,247.3143 310.5087,240.3911 C305.7921,230.9882 307.2116,224.8994 318.8672,223.6907" fill="#FEF3C7" style="stroke:#181818;stroke-width:0.5;"/><text fill="#000000" font-family="Monospace" font-size="14" lengthAdjust="spacing" textLength="76.4677" x="324.29" y="245.2039">tachometer</text></g><g class="entity" data-qualified-name="toolingGraphSummary" data-source-line="15" id="ent0009"><path d="M27.5,46.0679 L27.5,91.4799 L228.7842,91.4799 L228.7842,56.0679 L218.7842,46.0679 L27.5,46.0679" fill="#FEFFDD" style="stroke:#181818;stroke-width:0.5;"/><path d="M218.7842,46.0679 L218.7842,56.0679 L228.7842,56.0679 L218.7842,46.0679" fill="#FEFFDD" style="stroke:#181818;stroke-width:1;"/><text fill="#000000" font-family="Monospace" font-size="13" lengthAdjust="spacing" textLength="180.2842" x="33.5" y="64.9649">Scanned&#160;1&#160;tooling&#160;entrypoint.</text><text fill="#000000" font-family="Monospace" font-size="13" lengthAdjust="spacing" textLength="171.7822" x="33.5" y="82.6709">Detected&#160;3&#160;third-party&#160;tools.</text></g><!--link source_scripts_run_tachometer_profile_sh to tool_run--><g class="link" data-entity-1="ent0002" data-entity-2="ent0003" data-link-type="dependency" data-source-line="11" id="lnk6"><path d="M238.76,126.5179 C238.76,101.4479 238.76,69.3579 238.76,69.3579 C238.76,69.3579 293.27,69.3579 329.67,69.3579" fill="none" id="source_scripts_run_tachometer_profile_sh-to-tool_run" style="stroke:#181818;stroke-width:1;"/><polygon fill="#181818" points="335.67,69.3579,326.67,65.3579,330.67,69.3579,326.67,73.3579,335.67,69.3579" style="stroke:#181818;stroke-width:1;"/></g><!--link source_scripts_run_tachometer_profile_sh to tool_summarize--><g class="link" data-entity-1="ent0002" data-entity-2="ent0004" data-link-type="dependency" data-source-line="12" id="lnk7"><path d="M249.45,155.7779 C271.01,155.7779 286.38,155.7779 304.65,155.7779" fill="none" id="source_scripts_run_tachometer_profile_sh-to-tool_summarize" style="stroke:#181818;stroke-width:1;"/><polygon fill="#181818" points="310.65,155.7779,301.65,151.7779,305.65,155.7779,301.65,159.7779,310.65,155.7779" style="stroke:#181818;stroke-width:1;"/></g><!--link source_scripts_run_tachometer_profile_sh to tool_tachometer--><g class="link" data-entity-1="ent0002" data-entity-2="ent0005" data-link-type="dependency" data-source-line="13" id="lnk8"><path d="M127.76,185.1579 C127.76,209.3779 127.76,239.7779 127.76,239.7779 C127.76,239.7779 233.67,239.7779 302.96,239.7779" fill="none" id="source_scripts_run_tachometer_profile_sh-to-tool_tachometer" style="stroke:#181818;stroke-width:1;"/><polygon fill="#181818" points="308.96,239.7779,299.96,235.7779,303.96,239.7779,299.96,243.7779,308.96,239.7779" style="stroke:#181818;stroke-width:1;"/></g><?plantuml-src dPAzJiGm48HxFyNghixnSmKT3LmG1JH7YHHPpYQsi7SjUoCKdXxd8Ca9KI3QdVdMingB4uyGniemPII15sRlg8T74koJ5bVcocCd80p9zLQWTGdD9AZyvYZgf0Dagrj-dy1E-undIekT7hpKJFAi0y8J4-UepRd7S8XCvVcZZ2NEj5vJxyyj9HJA614uYMMrM62JJN9HyaKQg15jB0SKJ4rCt3cFksnVQLzII26mBLUmpnlG6J8FoM3pZJU_uqssi3rSrjVrGHdFGmkROZpnqwQ9WcrzgFTtDxEUXn1qSX-ukfRHJ-_wu6fUPulxpr6hwdR9zGzgoVaFTfKLiU1yJlaI3qb7Upoj7jNHQABImzMiGgazZP4ToKxTppNjGQnBRLNAb_6hj9r2Qc7Q_Ga0?></g></svg>
